<?xml version="1.0" encoding="UTF-8"?>
<svg width="76px" height="39px" viewBox="0 0 76 39" version="1.1" xmlns="http://www.w3.org/2000/svg" xmlns:xlink="http://www.w3.org/1999/xlink">
    <style>
        path {
            fill: #000000;
        }
        @media (prefers-color-scheme: dark) {
            path {
                fill: #ffcc00;
            }
        }
    </style>

    <title>48D70563-BD61-41AB-86C5-2481C43A5FC7</title>
    <g id="BSSP-logo-update" stroke="none" stroke-width="1" fill="none" fill-rule="evenodd">
        <g id="Logo-Assets-6" transform="translate(-295.000000, -228.000000)" fill="#FFFFFF">
            <g id="Group-3" transform="translate(295.000000, 228.776350)">
                <path d="M19.0426906,25.3333531 L19.0426906,12.6667063 L22.0424938,12.6667063 L25.3752125,17.7929063 L28.7079313,12.6667063 L31.7077344,12.6667063 L31.7077344,25.3333531 L28.7079313,25.3333531 L28.7079313,18.168275 L26.4328,21.6660563 L24.3174469,21.6660563 L22.0424938,18.168275 L22.0424938,25.3333531 L19.0426906,25.3333531 Z M56.868425,12.6667063 L56.868425,25.3333531 L53.8686219,25.3333531 L48.4279719,17.7932031 L48.4279719,25.3333531 L45.4282281,25.3333531 L45.4282281,12.6667063 L48.4279719,12.6667063 L53.8686812,20.2069156 L53.8686812,12.6667063 L56.868425,12.6667063 Z M33.2076063,15.66645 L33.2076063,12.6667063 L43.9282969,12.6667063 L43.9282969,15.66645 L40.0678531,15.66645 L40.0678531,25.3333531 L37.06805,25.3333531 L37.06805,15.66645 L33.2076063,15.66645 Z M38,35.0001969 C18.669875,35.0001969 2.99980312,27.8366625 2.99980312,19 C2.99980312,10.1633375 18.669875,2.99980313 38,2.99980313 C57.3301844,2.99980313 73.0002562,10.1633375 73.0002562,19 C73.0002562,27.8366625 57.3301844,35.0001969 38,35.0001969 L38,35.0001969 Z M38,0 C17.0131344,0 0,8.50659688 0,19 C0,29.4934031 17.0131344,38 38,38 C58.986925,38 76,29.4934031 76,19 C76,8.50659688 58.986925,0 38,0 L38,0 Z" id="Fill-1"></path>
            </g>
        </g>
    </g>
</svg>